<?xml version="1.0" encoding="utf-8"?><svg xmlns="http://www.w3.org/2000/svg" xmlns:xlink="http://www.w3.org/1999/xlink"><symbol viewBox="0 0 448 512" id="facebook" xmlns="http://www.w3.org/2000/svg"><path d="M448 56.7v398.5c0 13.7-11.1 24.7-24.7 24.7H309.1V306.5h58.2l8.7-67.6h-67v-43.2c0-19.6 5.4-32.9 33.5-32.9h35.8v-60.5c-6.2-.8-27.4-2.7-52.2-2.7-51.6 0-87 31.5-87 89.4v49.9h-58.4v67.6h58.4V480H24.7C11.1 480 0 468.9 0 455.3V56.7C0 43.1 11.1 32 24.7 32h398.5c13.7 0 24.8 11.1 24.8 24.7z"/></symbol><symbol viewBox="0 0 510 510" id="facebook-logo" xmlns="http://www.w3.org/2000/svg"><path d="M459 0H51C22.95 0 0 22.95 0 51v408c0 28.05 22.95 51 51 51h408c28.05 0 51-22.95 51-51V51c0-28.05-22.95-51-51-51zm-25.5 51v76.5h-51c-15.3 0-25.5 10.2-25.5 25.5v51h76.5v76.5H357V459h-76.5V280.5h-51V204h51v-63.75C280.5 91.8 321.3 51 369.75 51h63.75z"/></symbol><symbol viewBox="0 0 448 512" id="facebook-square" xmlns="http://www.w3.org/2000/svg"><path d="M448 80v352c0 26.5-21.5 48-48 48h-85.3V302.8h60.6l8.7-67.6h-69.3V192c0-19.6 5.4-32.9 33.5-32.9H384V98.7c-6.2-.8-27.4-2.7-52.2-2.7-51.6 0-87 31.5-87 89.4v49.9H184v67.6h60.9V480H48c-26.5 0-48-21.5-48-48V80c0-26.5 21.5-48 48-48h352c26.5 0 48 21.5 48 48z"/></symbol><symbol viewBox="0 0 448 512" id="instagram" xmlns="http://www.w3.org/2000/svg"><path d="M224.1 141c-63.6 0-114.9 51.3-114.9 114.9s51.3 114.9 114.9 114.9S339 319.5 339 255.9 287.7 141 224.1 141zm0 189.6c-41.1 0-74.7-33.5-74.7-74.7s33.5-74.7 74.7-74.7 74.7 33.5 74.7 74.7-33.6 74.7-74.7 74.7zm146.4-194.3c0 14.9-12 26.8-26.8 26.8-14.9 0-26.8-12-26.8-26.8s12-26.8 26.8-26.8 26.8 12 26.8 26.8zm76.1 27.2c-1.7-35.9-9.9-67.7-36.2-93.9-26.2-26.2-58-34.4-93.9-36.2-37-2.1-147.9-2.1-184.9 0-35.8 1.7-67.6 9.9-93.9 36.1s-34.4 58-36.2 93.9c-2.1 37-2.1 147.9 0 184.9 1.7 35.9 9.9 67.7 36.2 93.9s58 34.4 93.9 36.2c37 2.1 147.9 2.1 184.9 0 35.9-1.7 67.7-9.9 93.9-36.2 26.2-26.2 34.4-58 36.2-93.9 2.1-37 2.1-147.8 0-184.8zM398.8 388c-7.8 19.6-22.9 34.7-42.6 42.6-29.5 11.7-99.5 9-132.1 9s-102.7 2.6-132.1-9c-19.6-7.8-34.7-22.9-42.6-42.6-11.7-29.5-9-99.5-9-132.1s-2.6-102.7 9-132.1c7.8-19.6 22.9-34.7 42.6-42.6 29.5-11.7 99.5-9 132.1-9s102.7-2.6 132.1 9c19.6 7.8 34.7 22.9 42.6 42.6 11.7 29.5 9 99.5 9 132.1s2.7 102.7-9 132.1z"/></symbol><symbol viewBox="0 0 510 510" id="instagram-logo" xmlns="http://www.w3.org/2000/svg"><path d="M459 0H51C22.95 0 0 22.95 0 51v408c0 28.05 22.95 51 51 51h408c28.05 0 51-22.95 51-51V51c0-28.05-22.95-51-51-51zM255 153c56.1 0 102 45.9 102 102s-45.9 102-102 102-102-45.9-102-102 45.9-102 102-102zM63.75 459C56.1 459 51 453.9 51 446.25V229.5h53.55C102 237.15 102 247.35 102 255c0 84.15 68.85 153 153 153s153-68.85 153-153c0-7.65 0-17.85-2.55-25.5H459v216.75c0 7.65-5.1 12.75-12.75 12.75H63.75zM459 114.75c0 7.65-5.1 12.75-12.75 12.75h-51c-7.65 0-12.75-5.1-12.75-12.75v-51c0-7.65 5.1-12.75 12.75-12.75h51C453.9 51 459 56.1 459 63.75v51z"/></symbol><symbol viewBox="0 0 500 500" id="soundclound-logo" xmlns="http://www.w3.org/2000/svg"><path d="M50 0C22.3 0 0 22.3 0 50v400c0 27.7 22.3 50 50 50h400c27.7 0 50-22.3 50-50V50c0-27.7-22.3-50-50-50H50zm240.844 159.969c43.497 0 79.14 33.35 82.906 75.875a47.334 47.334 0 0118.25-3.656c26.06 0 47.188 21.096 47.188 47.156 0 26.059-21.12 47.187-47.188 47.187-.84 0-130.657-.047-130.781-.062-2.817-.296-5.063-2.7-5.094-5.563v-149.75c.031-2.762.96-4.154 4.531-5.531 9.159-3.548 19.535-5.656 30.188-5.656zM246.469 171c2.832 0 5.148 2.332 5.187 5.188l2.313 106.28-2.313 38.563c-.046 2.84-2.363 5.156-5.187 5.156-2.825 0-5.141-2.315-5.188-5.125l-2.125-38.593 2.125-106.281c.047-2.856 2.363-5.188 5.188-5.188zm-16.594 9.188c.161-.017.303 0 .469 0 2.638 0 4.82 2.167 4.875 4.843l2.062 97.438-2.062 39.125v.031c-.071 2.662-2.248 4.812-4.875 4.812-2.646 0-4.797-2.198-4.844-4.843 0 0-1.844-39.079-1.844-39.157l1.844-97.406c.044-2.51 1.956-4.595 4.375-4.844zm-47.688 11.187c2.117 0 3.805 1.673 3.875 3.844l2.75 87.219-2.75 40.03c-.07 2.156-1.758 3.844-3.875 3.844-2.108 0-3.836-1.696-3.906-3.843l-2.406-40.031 2.406-87.22c.07-2.17 1.798-3.843 3.906-3.843zm15.938 1.875c2.295 0 4.157 1.845 4.219 4.188l2.469 85-2.47 39.656v.031c-.077 2.327-1.933 4.156-4.218 4.156-2.311 0-4.172-1.86-4.219-4.187l-2.219-39.657 2.22-85c.054-2.342 1.907-4.187 4.218-4.187zm-31.75 1.281c1.914 0 3.485 1.54 3.563 3.531l2.937 84.375-2.938 40.282v.031c-.093 1.961-1.658 3.5-3.562 3.5-1.938 0-3.5-1.57-3.563-3.531l-2.625-40.282 2.625-84.375c.07-1.991 1.625-3.53 3.563-3.53zm47.813 1.5c2.482 0 4.469 2.01 4.53 4.531L221 282.438l-2.281 39.375c-.063 2.537-2.05 4.532-4.531 4.532-2.498 0-4.485-1.979-4.532-4.469l-2.062-39.438 2.031-81.875c.054-2.536 2.065-4.53 4.563-4.53zm-63.5 5.313c1.735 0 3.164 1.413 3.25 3.219l3.156 77.875-3.156 40.687v.031c-.101 1.775-1.533 3.156-3.25 3.156-1.728 0-3.141-1.413-3.22-3.187l-2.812-40.688 2.813-77.875c.078-1.805 1.483-3.218 3.219-3.218zm-15.563 14.812c1.54 0 2.82 1.265 2.906 2.875l3.406 63.375-3.406 40.969c-.085 1.61-1.365 2.875-2.906 2.875-1.548 0-2.82-1.28-2.906-2.875l-3-40.969 3-63.375c.085-1.61 1.358-2.875 2.906-2.875zm-30.75 22.031c1.167 0 2.141.943 2.25 2.22l3.844 42-3.844 40.624c-.109 1.26-1.083 2.188-2.25 2.188-1.198 0-2.157-.927-2.25-2.188l-3.406-40.625 3.406-42c.093-1.276 1.06-2.219 2.25-2.219zm-15.188 1.47c.997 0 1.782.777 1.907 1.874l4.062 40.875-4.062 39.406c-.117 1.074-.91 1.844-1.906 1.844-1.012 0-1.837-.778-1.938-1.875l-3.563-39.375s3.563-40.86 3.563-40.875c.101-1.09.926-1.875 1.938-1.875zm30.5 1.25c1.37 0 2.5 1.083 2.594 2.53l3.625 38.97-3.625 40.937v.031c-.114 1.44-1.234 2.531-2.594 2.531-1.392 0-2.476-1.1-2.562-2.562l-3.219-40.938 3.219-38.969c.086-1.44 1.177-2.53 2.563-2.53zm-45.593 5.5c.809 0 1.492.62 1.625 1.53L80 282.408l-4.281 33.687c-.133.91-.785 1.531-1.594 1.531-.81 0-1.508-.636-1.625-1.531l-3.781-33.688s3.781-34.453 3.781-34.469c.117-.879.785-1.53 1.594-1.53zm-14.156 13.187c.778 0 1.414.62 1.53 1.5l3.313 21.312-3.312 20.938c-.125.863-.753 1.5-1.532 1.5-.793 0-1.453-.621-1.562-1.5l-2.781-20.938 2.781-21.312c.109-.88.761-1.5 1.563-1.5z"/></symbol><symbol viewBox="0 0 576 512" id="youtube" xmlns="http://www.w3.org/2000/svg"><path d="M549.655 124.083c-6.281-23.65-24.787-42.276-48.284-48.597C458.781 64 288 64 288 64S117.22 64 74.629 75.486c-23.497 6.322-42.003 24.947-48.284 48.597-11.412 42.867-11.412 132.305-11.412 132.305s0 89.438 11.412 132.305c6.281 23.65 24.787 41.5 48.284 47.821C117.22 448 288 448 288 448s170.78 0 213.371-11.486c23.497-6.321 42.003-24.171 48.284-47.821 11.412-42.867 11.412-132.305 11.412-132.305s0-89.438-11.412-132.305zm-317.51 213.508V175.185l142.739 81.205-142.739 81.201z"/></symbol><symbol viewBox="0 0 18.136 18.136" id="youtube-logo" xmlns="http://www.w3.org/2000/svg"><path d="M16.281.001H1.855A1.854 1.854 0 000 1.855v14.426c0 1.025.831 1.854 1.855 1.854h14.426a1.853 1.853 0 001.855-1.854V1.855c0-1.025-.83-1.854-1.855-1.854zm-5.834 3.062h.883v2.785c0 .535.017.519.035.586.019.071.083.238.29.238.22 0 .281-.176.298-.251.014-.065.03-.052.03-.61V3.063h.882v4.18h-.894l.011-.211-.272-.113a.799.799 0 01-.247.31.577.577 0 01-.342.104.64.64 0 01-.37-.098.536.536 0 01-.198-.24 1.195 1.195 0 01-.086-.346c-.013-.135-.02-.414-.02-.83V3.063zM7.379 4.801c0-.436.037-.773.107-1.012.066-.221.183-.395.358-.529.178-.139.413-.208.699-.208.244 0 .453.048.624.138.166.088.294.203.381.338.089.142.151.287.184.433.034.152.051.398.051.73v.736c0 .432-.017.747-.048.941a1.36 1.36 0 01-.195.504.907.907 0 01-.379.341 1.314 1.314 0 01-.567.117c-.244 0-.451-.034-.617-.104a.75.75 0 01-.354-.273 1.298 1.298 0 01-.183-.461c-.04-.194-.06-.496-.06-.899l-.001-.792zM5.314 1.574l.718 2.311c.125-.604.367-1.44.559-2.311h.651l-.838 3.297-.006.026v2.344h-.763V4.897l-.006-.025-.966-3.298h.651zm10.394 12.927c-.114 1.04-1.037 1.892-2.072 1.962-3.048.131-6.087.131-9.134 0-1.036-.07-1.958-.922-2.073-1.962a35.557 35.557 0 010-4.907c.114-1.04 1.037-1.89 2.073-1.963 3.047-.13 6.086-.13 9.134 0 1.036.073 1.958.923 2.072 1.963a35.245 35.245 0 010 4.907zM8.581 6.83c.128 0 .228-.077.273-.21.021-.061.046-.177.046-.493V4.316c0-.366-.021-.484-.043-.551-.045-.136-.144-.215-.273-.215-.127 0-.227.076-.274.211-.024.065-.048.186-.048.555v1.761c0 .346.025.465.047.532.046.14.145.221.272.221zM3.617 9.91h.863v4.851h.904V9.91h.865v-.92H3.617v.92zm4.275 3.195c0 .521-.015.65-.027.705-.031.135-.139.217-.291.217-.145 0-.25-.078-.284-.207-.015-.055-.031-.184-.031-.68v-2.757h-.856v3.004c0 .396.006.66.018.79.012.119.043.237.091.348.043.1.108.177.199.236.088.061.205.09.346.09a.547.547 0 00.318-.094.774.774 0 00.246-.301l.271.066-.012.244h.868v-4.383h-.855l-.001 2.722zm3.786-2.5a.512.512 0 00-.205-.215.676.676 0 00-.338-.078.558.558 0 00-.304.086.901.901 0 00-.27.281l-.261.403V8.991h-.856v5.771h.808l.05-.257.07-.358.19.308a.98.98 0 00.275.306c.093.062.19.094.296.094.15 0 .276-.053.386-.156a.73.73 0 00.217-.389c.034-.168.051-.434.051-.416v-2.291c0 .01.034-.228-.017-.701a.803.803 0 00-.092-.297zm-.745 2.543c0 .41-.021.535-.038.6-.04.141-.141.223-.277.223-.132 0-.233-.078-.275-.215-.02-.062-.042-.184-.042-.559v-1.161c0-.39.02-.507.038-.563a.276.276 0 01.272-.207c.135 0 .237.082.28.221.019.061.044.183.044.551v1.111l-.002-.001zm2.339-.446h1.478v-.476c0-.431-.04-.925-.119-1.156a1.026 1.026 0 00-.389-.528c-.181-.128-.419-.195-.706-.195-.233 0-.441.054-.618.163s-.3.262-.378.469c-.082.215-.125.521-.125 1.064v1.345c0 .173.02.429.056.597.036.162.101.312.193.447.087.127.214.23.374.305.164.076.358.115.576.115.223 0 .409-.039.551-.113a.926.926 0 00.354-.342c.098-.158.161-.309.187-.445.028-.143.042-.355.042-.631v-.205h-.796v.472c0 .25-.017.413-.052.511a.314.314 0 01-.309.211.278.278 0 01-.274-.179c-.022-.054-.047-.151-.047-.452v-.976h.002v-.001zm0-.615v-.495c0-.364.019-.309.035-.358.038-.117.141-.186.284-.186.128 0 .226.075.265.203.016.052.036.002.036.341v.634h-.619l-.001-.139z"/></symbol></svg>